<svg width="297" height="77" viewBox="0 0 297 77" fill="none" xmlns="http://www.w3.org/2000/svg">
<path d="M1 9V1H9.16" stroke="#F5F5F5" stroke-linecap="square"/>
<path d="M43.84 1L52 1L52 9" stroke="#F5F5F5" stroke-linecap="square"/>
<path fill-rule="evenodd" clip-rule="evenodd" d="M25.0816 15.4993H22.2468V18.3879V18.3882V21.2768H25.0816V24.1655H27.9171V21.2768V21.2766V18.3882V18.3879V15.4993H25.0823H25.0816ZM19.4099 18.3879H22.2454V21.2768H19.4107V24.1655H16.5751V21.2766H19.4099V18.3879ZM13.7397 24.1663H16.5751H16.5753H19.4099H19.4107H22.2454V27.0549V27.0551V29.9436V29.9438V32.8323V32.8325V35.7212H19.4107H19.4099H16.5751V32.8325V32.8323V29.9438V29.9436V27.0551H13.7397V24.1663ZM30.7529 24.1663H27.9177V27.0549V27.0551V29.9436V29.9438V32.8325H30.7529V35.7212H33.5884V32.8325V32.8323V29.9438V29.9436V27.0551V27.0549V24.1663H30.7532H30.7529ZM27.9171 29.9436H25.0823V27.0551V27.0549V24.1663H22.2468V27.0549V27.0551V29.9436V29.9438V32.8325H25.0816V35.7212H27.9171V32.8325V32.8323V29.9436ZM27.9171 35.7219H25.0816V38.6108H27.9171V35.7219ZM22.2454 35.7219H19.4099V38.6108H22.2454V35.7219ZM33.5884 35.7219H30.7529V38.6108H33.5884V35.7219ZM33.5886 29.9436V27.0551V27.0549V24.1663H36.4241V27.0549V27.0551V29.9436V29.9438V32.8323V32.8325V35.7212H33.5886V32.8325V32.8323V29.9438V29.9436ZM36.4246 24.1663H39.2601V27.0551H36.4246V24.1663ZM27.9177 15.4993H30.7532V18.3879H33.5884V21.2768H30.7532H30.7529H27.9177V18.3882V18.3879V15.4993ZM36.4241 21.2766H33.5886V24.1655H36.4241V21.2766Z" fill="#4CD0F1"/>
<path d="M52 45.1101L52 53.1101L43.84 53.1101" stroke="#F5F5F5" stroke-linecap="square"/>
<path d="M9.16 53.1101L1 53.1101L1 45.1101" stroke="#F5F5F5" stroke-linecap="square"/>
<path d="M2.472 67.1581C1.184 67.1581 0.536 66.4301 0.536 65.0221V61.5101H1.44V65.0221C1.44 65.9181 1.792 66.3421 2.472 66.3421C3.168 66.3421 3.52 65.9341 3.52 65.0221V61.5101H4.424V65.0221C4.424 66.4301 3.768 67.1581 2.472 67.1581ZM7.52894 67.1581C6.24094 67.1581 5.40094 66.4301 5.36894 65.2701H6.28894C6.34494 65.9581 6.82494 66.3821 7.53694 66.3821C8.18494 66.3821 8.58494 66.0701 8.58494 65.5581C8.58494 65.0701 8.28094 64.8621 7.21694 64.6621C6.02494 64.4381 5.50494 63.9661 5.50494 63.1021C5.50494 62.1261 6.27294 61.4621 7.39294 61.4621C8.58494 61.4621 9.37694 62.1341 9.41694 63.1901H8.49694C8.43294 62.5981 8.00894 62.2381 7.39294 62.2381C6.78494 62.2381 6.41694 62.5341 6.41694 63.0301C6.41694 63.5021 6.72094 63.7101 7.76894 63.9021C8.96094 64.1101 9.50494 64.6061 9.50494 65.4541C9.50494 66.4621 8.69694 67.1581 7.52894 67.1581ZM10.6259 67.1101V61.5101H14.1939V62.3261H11.5459V63.8781H13.7779V64.6701H11.5459V66.2941H14.2899V67.1101H10.6259ZM15.5308 67.1101V61.5101H17.4988C18.6348 61.5101 19.3948 62.2061 19.3948 63.2941C19.3948 64.0461 18.9708 64.6461 18.3068 64.8781L19.4908 67.1101H18.4828L17.4028 65.0781H16.4428V67.1101H15.5308ZM16.4428 64.2781H17.4108C18.0588 64.2781 18.4748 63.8941 18.4748 63.2941C18.4748 62.6941 18.0588 62.3101 17.4108 62.3101H16.4428V64.2781ZM27.3727 67.1581C26.0847 67.1581 25.2447 66.4301 25.2127 65.2701H26.1327C26.1887 65.9581 26.6687 66.3821 27.3807 66.3821C28.0287 66.3821 28.4287 66.0701 28.4287 65.5581C28.4287 65.0701 28.1247 64.8621 27.0607 64.6621C25.8687 64.4381 25.3487 63.9661 25.3487 63.1021C25.3487 62.1261 26.1167 61.4621 27.2367 61.4621C28.4287 61.4621 29.2207 62.1341 29.2607 63.1901H28.3407C28.2767 62.5981 27.8527 62.2381 27.2367 62.2381C26.6287 62.2381 26.2607 62.5341 26.2607 63.0301C26.2607 63.5021 26.5647 63.7101 27.6127 63.9021C28.8047 64.1101 29.3487 64.6061 29.3487 65.4541C29.3487 66.4621 28.5407 67.1581 27.3727 67.1581ZM32.3736 67.1581C30.9336 67.1581 30.1336 66.1421 30.1336 64.3101C30.1336 62.4701 30.9416 61.4621 32.4056 61.4621C33.5016 61.4621 34.2376 62.1661 34.4136 63.4141H33.4776C33.3176 62.6381 32.9656 62.2701 32.3896 62.2701C31.5176 62.2701 31.0536 62.9741 31.0536 64.3101C31.0536 65.6621 31.5016 66.3501 32.3736 66.3501C32.9736 66.3501 33.3096 65.9901 33.4696 65.2061H34.4136C34.2296 66.4541 33.5016 67.1581 32.3736 67.1581ZM37.2066 67.1581C35.8946 67.1581 35.0946 66.0781 35.0946 64.3101C35.0946 62.5421 35.8946 61.4621 37.2066 61.4621C38.5186 61.4621 39.3186 62.5421 39.3186 64.3101C39.3186 66.0781 38.5186 67.1581 37.2066 67.1581ZM37.2066 66.3501C38.0066 66.3501 38.3986 65.6701 38.3986 64.3101C38.3986 62.9501 38.0066 62.2701 37.2066 62.2701C36.4066 62.2701 36.0146 62.9421 36.0146 64.3101C36.0146 65.6781 36.4066 66.3501 37.2066 66.3501ZM40.3355 67.1101V61.5101H42.3035C43.4395 61.5101 44.1995 62.2061 44.1995 63.2941C44.1995 64.0461 43.7755 64.6461 43.1115 64.8781L44.2955 67.1101H43.2875L42.2075 65.0781H41.2475V67.1101H40.3355ZM41.2475 64.2781H42.2155C42.8635 64.2781 43.2795 63.8941 43.2795 63.2941C43.2795 62.6941 42.8635 62.3101 42.2155 62.3101H41.2475V64.2781ZM45.3524 67.1101V61.5101H48.9204V62.3261H46.2724V63.8781H48.5044V64.6701H46.2724V66.2941H49.0164V67.1101H45.3524ZM0.144 75.1101L1.912 69.5101H3.048L4.816 75.1101H3.864L3.44 73.7261H1.488L1.064 75.1101H0.144ZM1.712 72.9421H3.216L2.456 70.4781L1.712 72.9421ZM7.37694 75.1581C6.10494 75.1581 5.32894 74.0781 5.32894 72.3101C5.32894 70.4941 6.07294 69.4621 7.44094 69.4621C8.44894 69.4621 9.17694 70.1021 9.34494 71.4141H8.44894C8.32094 70.6061 7.96094 70.2621 7.42494 70.2621C6.61694 70.2621 6.22494 70.9581 6.22494 72.3101C6.22494 73.6621 6.64094 74.3581 7.45694 74.3581C8.12094 74.3581 8.52894 73.8381 8.52894 72.9741V72.7981H7.51294V72.0461H9.36894V75.1101H8.67294L8.60094 74.4141C8.32894 74.9181 7.93694 75.1581 7.37694 75.1581ZM10.6259 75.1101V69.5101H14.1939V70.3261H11.5459V71.8781H13.7779V72.6701H11.5459V74.2941H14.2899V75.1101H10.6259ZM15.4508 75.1101V69.5101H16.2988L18.4428 73.4621V69.5101H19.2748V75.1101H18.4268L16.2828 71.1581V75.1101H15.4508ZM21.8678 75.1101V70.3261H20.1558V69.5101H24.4998V70.3261H22.7798V75.1101H21.8678ZM27.3727 75.1581C26.0847 75.1581 25.2447 74.4301 25.2127 73.2701H26.1327C26.1887 73.9581 26.6687 74.3821 27.3807 74.3821C28.0287 74.3821 28.4287 74.0701 28.4287 73.5581C28.4287 73.0701 28.1247 72.8621 27.0607 72.6621C25.8687 72.4381 25.3487 71.9661 25.3487 71.1021C25.3487 70.1261 26.1167 69.4621 27.2367 69.4621C28.4287 69.4621 29.2207 70.1341 29.2607 71.1901H28.3407C28.2767 70.5981 27.8527 70.2381 27.2367 70.2381C26.6287 70.2381 26.2607 70.5341 26.2607 71.0301C26.2607 71.5021 26.5647 71.7101 27.6127 71.9021C28.8047 72.1101 29.3487 72.6061 29.3487 73.4541C29.3487 74.4621 28.5407 75.1581 27.3727 75.1581Z" fill="#4CD0F1"/>
<path d="M62 9V1H70.16" stroke="#F5F5F5" stroke-linecap="square"/>
<path d="M104.84 1L113 1L113 9" stroke="#F5F5F5" stroke-linecap="square"/>
<path fill-rule="evenodd" clip-rule="evenodd" d="M80.7332 16.2366H78.0287V18.9418H80.7332V21.6456H78.0287V24.3501H75.3242V27.0553H78.0295V24.3508H80.7332V27.0553H83.4377V29.7591H80.7332V32.4636H78.0287V35.1681V35.1688V37.8733H80.734V35.1688V35.1681V32.4643H83.4377V35.1681V35.1688V37.8733H86.143V35.1688V35.1681V32.4643V32.4636V29.7598H88.8467V32.4636V32.4643V35.1681V35.1688V37.8733H91.552V35.1688V35.1681V32.4643V32.4636V29.7598V29.7591V27.0553V27.0546V24.3501H88.8475V21.6463H91.552V18.9411H88.8475H88.8467H86.143H86.1422H83.4385V16.2366H80.734H80.7332ZM86.1422 21.6463H83.4385V24.3501H86.1422V21.6463ZM91.5618 29.7591H94.267V32.4636H96.961V35.1681V35.1688V37.8733H94.2557V35.1688V35.1681V32.4643H91.5618V29.7591ZM94.267 27.0553V24.3508H96.961V21.6456H94.267V18.9418H96.961V16.2366H94.267H94.2557H91.5618V18.9411V18.9418V21.6456V21.6463V24.3501V24.3508V27.0553H94.267ZM96.9708 24.3501H99.6761V27.0553H96.9708V24.3501Z" fill="#8261FD"/>
<path d="M113 45.1101L113 53.1101L104.84 53.1101" stroke="#F5F5F5" stroke-linecap="square"/>
<path d="M70.16 53.1101L62 53.1101L62 45.1101" stroke="#F5F5F5" stroke-linecap="square"/>
<path d="M63.568 67.1581C62.28 67.1581 61.44 66.4301 61.408 65.2701H62.328C62.384 65.9581 62.864 66.3821 63.576 66.3821C64.224 66.3821 64.624 66.0701 64.624 65.5581C64.624 65.0701 64.32 64.8621 63.256 64.6621C62.064 64.4381 61.544 63.9661 61.544 63.1021C61.544 62.1261 62.312 61.4621 63.432 61.4621C64.624 61.4621 65.416 62.1341 65.456 63.1901H64.536C64.472 62.5981 64.048 62.2381 63.432 62.2381C62.824 62.2381 62.456 62.5341 62.456 63.0301C62.456 63.5021 62.76 63.7101 63.808 63.9021C65 64.1101 65.544 64.6061 65.544 65.4541C65.544 66.4621 64.736 67.1581 63.568 67.1581ZM68.4409 67.1581C67.1289 67.1581 66.3289 66.0781 66.3289 64.3101C66.3289 62.5421 67.1289 61.4621 68.4409 61.4621C69.7529 61.4621 70.5529 62.5421 70.5529 64.3101C70.5529 66.0781 69.7529 67.1581 68.4409 67.1581ZM68.4409 66.3501C69.2409 66.3501 69.6329 65.6701 69.6329 64.3101C69.6329 62.9501 69.2409 62.2701 68.4409 62.2701C67.6409 62.2701 67.2489 62.9421 67.2489 64.3101C67.2489 65.6781 67.6409 66.3501 68.4409 66.3501ZM73.5299 67.1581C72.0899 67.1581 71.2899 66.1421 71.2899 64.3101C71.2899 62.4701 72.0979 61.4621 73.5619 61.4621C74.6579 61.4621 75.3939 62.1661 75.5699 63.4141H74.6339C74.4739 62.6381 74.1219 62.2701 73.5459 62.2701C72.6739 62.2701 72.2099 62.9741 72.2099 64.3101C72.2099 65.6621 72.6579 66.3501 73.5299 66.3501C74.1299 66.3501 74.4659 65.9901 74.6259 65.2061H75.5699C75.3859 66.4541 74.6579 67.1581 73.5299 67.1581ZM76.4988 67.1101V66.3101H77.9068V62.3101H76.4988V61.5101H80.2188V62.3101H78.8188V66.3101H80.2188V67.1101H76.4988ZM80.9878 67.1101L82.7558 61.5101H83.8918L85.6598 67.1101H84.7078L84.2838 65.7261H82.3318L81.9078 67.1101H80.9878ZM82.5558 64.9421H84.0598L83.2998 62.4781L82.5558 64.9421ZM86.6847 67.1101V61.5101H87.5967V66.2941H90.1887V67.1101H86.6847ZM95.8706 67.1101L97.6386 61.5101H98.7746L100.543 67.1101H99.5906L99.1666 65.7261H97.2146L96.7906 67.1101H95.8706ZM97.4386 64.9421H98.9426L98.1826 62.4781L97.4386 64.9421ZM101.304 67.1101V66.3101H102.712V62.3101H101.304V61.5101H105.024V62.3101H103.624V66.3101H105.024V67.1101H101.304ZM61.144 75.1101L62.912 69.5101H64.048L65.816 75.1101H64.864L64.44 73.7261H62.488L62.064 75.1101H61.144ZM62.712 72.9421H64.216L63.456 70.4781L62.712 72.9421ZM68.3769 75.1581C67.1049 75.1581 66.3289 74.0781 66.3289 72.3101C66.3289 70.4941 67.0729 69.4621 68.4409 69.4621C69.4489 69.4621 70.1769 70.1021 70.3449 71.4141H69.4489C69.3209 70.6061 68.9609 70.2621 68.4249 70.2621C67.6169 70.2621 67.2249 70.9581 67.2249 72.3101C67.2249 73.6621 67.6409 74.3581 68.4569 74.3581C69.1209 74.3581 69.5289 73.8381 69.5289 72.9741V72.7981H68.5129V72.0461H70.3689V75.1101H69.6729L69.6009 74.4141C69.3289 74.9181 68.9369 75.1581 68.3769 75.1581ZM71.6259 75.1101V69.5101H75.1939V70.3261H72.5459V71.8781H74.7779V72.6701H72.5459V74.2941H75.2899V75.1101H71.6259ZM76.4508 75.1101V69.5101H77.2988L79.4428 73.4621V69.5101H80.2748V75.1101H79.4268L77.2828 71.1581V75.1101H76.4508ZM82.8678 75.1101V70.3261H81.1558V69.5101H85.4998V70.3261H83.7798V75.1101H82.8678ZM88.3727 75.1581C87.0847 75.1581 86.2447 74.4301 86.2127 73.2701H87.1327C87.1887 73.9581 87.6687 74.3821 88.3807 74.3821C89.0287 74.3821 89.4287 74.0701 89.4287 73.5581C89.4287 73.0701 89.1247 72.8621 88.0607 72.6621C86.8687 72.4381 86.3487 71.9661 86.3487 71.1021C86.3487 70.1261 87.1167 69.4621 88.2367 69.4621C89.4287 69.4621 90.2207 70.1341 90.2607 71.1901H89.3407C89.2767 70.5981 88.8527 70.2381 88.2367 70.2381C87.6287 70.2381 87.2607 70.5341 87.2607 71.0301C87.2607 71.5021 87.5647 71.7101 88.6127 71.9021C89.8047 72.1101 90.3487 72.6061 90.3487 73.4541C90.3487 74.4621 89.5407 75.1581 88.3727 75.1581Z" fill="#B7A3FF"/>
<path d="M123 9V1H131.16" stroke="#F5F5F5" stroke-linecap="square"/>
<path d="M165.84 1L174 1L174 9" stroke="#F5F5F5" stroke-linecap="square"/>
<path fill-rule="evenodd" clip-rule="evenodd" d="M147.125 16.0549H144.375V18.8049H141.625H138.875V21.5549V24.3049H136.125V27.0549V29.8049H138.875V32.5549H141.625V35.3049V38.0549H144.375V35.3049H147.125V38.0549H149.875V35.3049H152.625V38.0549H155.375V35.3049V32.5549H158.125V29.8049H160.875V27.0549V24.3049H158.125V21.5549V18.8049H155.375H152.625V16.0549H149.875V18.8049H147.125V16.0549ZM147.125 29.8049H144.375V27.0549H147.125H149.875H152.625V29.8049H149.875H147.125ZM152.625 24.3049H155.375V27.0549H152.625V24.3049ZM152.625 24.3049H149.875V21.5549H152.625V24.3049ZM144.375 24.3049V27.0549H141.625V24.3049H144.375ZM144.375 24.3049H147.125V21.5549H144.375V24.3049Z" fill="#FEBF74"/>
<path d="M174 45.1101L174 53.1101L165.84 53.1101" stroke="#F5F5F5" stroke-linecap="square"/>
<path d="M131.16 53.1101L123 53.1101L123 45.1101" stroke="#F5F5F5" stroke-linecap="square"/>
<path d="M122.648 67.1101V61.5101H124.616C125.752 61.5101 126.512 62.2061 126.512 63.2941C126.512 64.0461 126.088 64.6461 125.424 64.8781L126.608 67.1101H125.6L124.52 65.0781H123.56V67.1101H122.648ZM123.56 64.2781H124.528C125.176 64.2781 125.592 63.8941 125.592 63.2941C125.592 62.6941 125.176 62.3101 124.528 62.3101H123.56V64.2781ZM127.665 67.1101V61.5101H131.233V62.3261H128.585V63.8781H130.817V64.6701H128.585V66.2941H131.329V67.1101H127.665ZM134.49 67.1581C133.202 67.1581 132.362 66.4301 132.33 65.2701H133.25C133.306 65.9581 133.786 66.3821 134.498 66.3821C135.146 66.3821 135.546 66.0701 135.546 65.5581C135.546 65.0701 135.242 64.8621 134.178 64.6621C132.986 64.4381 132.466 63.9661 132.466 63.1021C132.466 62.1261 133.234 61.4621 134.354 61.4621C135.546 61.4621 136.338 62.1341 136.378 63.1901H135.458C135.394 62.5981 134.97 62.2381 134.354 62.2381C133.746 62.2381 133.378 62.5341 133.378 63.0301C133.378 63.5021 133.682 63.7101 134.73 63.9021C135.922 64.1101 136.466 64.6061 136.466 65.4541C136.466 66.4621 135.658 67.1581 134.49 67.1581ZM139.355 67.1581C138.067 67.1581 137.419 66.4301 137.419 65.0221V61.5101H138.323V65.0221C138.323 65.9181 138.675 66.3421 139.355 66.3421C140.051 66.3421 140.403 65.9341 140.403 65.0221V61.5101H141.307V65.0221C141.307 66.4301 140.651 67.1581 139.355 67.1581ZM142.724 67.1101V61.5101H143.636V66.2941H146.228V67.1101H142.724ZM148.829 67.1101V62.3261H147.117V61.5101H151.461V62.3261H149.741V67.1101H148.829ZM154.334 67.1581C153.046 67.1581 152.206 66.4301 152.174 65.2701H153.094C153.15 65.9581 153.63 66.3821 154.342 66.3821C154.99 66.3821 155.39 66.0701 155.39 65.5581C155.39 65.0701 155.086 64.8621 154.022 64.6621C152.83 64.4381 152.31 63.9661 152.31 63.1021C152.31 62.1261 153.078 61.4621 154.198 61.4621C155.39 61.4621 156.182 62.1341 156.222 63.1901H155.302C155.238 62.5981 154.814 62.2381 154.198 62.2381C153.59 62.2381 153.222 62.5341 153.222 63.0301C153.222 63.5021 153.526 63.7101 154.574 63.9021C155.766 64.1101 156.31 64.6061 156.31 65.4541C156.31 66.4621 155.502 67.1581 154.334 67.1581ZM161.832 67.1101L163.6 61.5101H164.736L166.504 67.1101H165.552L165.128 65.7261H163.176L162.752 67.1101H161.832ZM163.4 64.9421H164.904L164.144 62.4781L163.4 64.9421ZM167.264 67.1101V66.3101H168.672V62.3101H167.264V61.5101H170.984V62.3101H169.584V66.3101H170.984V67.1101H167.264ZM122.144 75.1101L123.912 69.5101H125.048L126.816 75.1101H125.864L125.44 73.7261H123.488L123.064 75.1101H122.144ZM123.712 72.9421H125.216L124.456 70.4781L123.712 72.9421ZM129.377 75.1581C128.105 75.1581 127.329 74.0781 127.329 72.3101C127.329 70.4941 128.073 69.4621 129.441 69.4621C130.449 69.4621 131.177 70.1021 131.345 71.4141H130.449C130.321 70.6061 129.961 70.2621 129.425 70.2621C128.617 70.2621 128.225 70.9581 128.225 72.3101C128.225 73.6621 128.641 74.3581 129.457 74.3581C130.121 74.3581 130.529 73.8381 130.529 72.9741V72.7981H129.513V72.0461H131.369V75.1101H130.673L130.601 74.4141C130.329 74.9181 129.937 75.1581 129.377 75.1581ZM132.626 75.1101V69.5101H136.194V70.3261H133.546V71.8781H135.778V72.6701H133.546V74.2941H136.29V75.1101H132.626ZM137.451 75.1101V69.5101H138.299L140.443 73.4621V69.5101H141.275V75.1101H140.427L138.283 71.1581V75.1101H137.451ZM143.868 75.1101V70.3261H142.156V69.5101H146.5V70.3261H144.78V75.1101H143.868ZM149.373 75.1581C148.085 75.1581 147.245 74.4301 147.213 73.2701H148.133C148.189 73.9581 148.669 74.3821 149.381 74.3821C150.029 74.3821 150.429 74.0701 150.429 73.5581C150.429 73.0701 150.125 72.8621 149.061 72.6621C147.869 72.4381 147.349 71.9661 147.349 71.1021C147.349 70.1261 148.117 69.4621 149.237 69.4621C150.429 69.4621 151.221 70.1341 151.261 71.1901H150.341C150.277 70.5981 149.853 70.2381 149.237 70.2381C148.629 70.2381 148.261 70.5341 148.261 71.0301C148.261 71.5021 148.565 71.7101 149.613 71.9021C150.805 72.1101 151.349 72.6061 151.349 73.4541C151.349 74.4621 150.541 75.1581 149.373 75.1581Z" fill="#FEBF74"/>
<path d="M184 9V1H192.16" stroke="#F5F5F5" stroke-linecap="square"/>
<path d="M226.84 1L235 1L235 9" stroke="#F5F5F5" stroke-linecap="square"/>
<path fill-rule="evenodd" clip-rule="evenodd" d="M199.875 16.0549H202.625V18.8049H205.375V21.5549H208.125V24.3049H210.875V21.5549H213.625V18.8049H216.375V16.0549H219.125V18.8049V21.5549V24.3049V27.0549V29.8049V32.5549H216.375V35.3049H219.125V38.0549H216.375H213.625V35.3049H210.875V38.0549H208.125V35.3049H205.375V38.0549H202.625H199.875V35.3049H202.625V32.5549H199.875V29.8049V27.0549V24.3049V21.5549V18.8049V16.0549ZM210.875 29.8049H213.625V27.0549H210.875V29.8049ZM205.375 29.8049H208.125V27.0549H205.375V29.8049Z" fill="#D8D8D8"/>
<path d="M235 45.1101L235 53.1101L226.84 53.1101" stroke="#F5F5F5" stroke-linecap="square"/>
<path d="M192.16 53.1101L184 53.1101L184 45.1101" stroke="#F5F5F5" stroke-linecap="square"/>
<path d="M185.48 67.1581C184.192 67.1581 183.4 66.0861 183.4 64.3101C183.4 62.5341 184.192 61.4621 185.48 61.4621C186.768 61.4621 187.56 62.5341 187.56 64.3101C187.56 66.0861 186.768 67.1581 185.48 67.1581ZM185.48 66.5181C186.376 66.5181 186.848 65.7501 186.848 64.3101C186.848 62.8701 186.376 62.1021 185.48 62.1021C184.584 62.1021 184.112 62.8621 184.112 64.3101C184.112 65.7581 184.584 66.5181 185.48 66.5181ZM188.585 67.1101V61.5101H189.265L191.633 65.8061V61.5101H192.297V67.1101H191.617L189.249 62.8061V67.1101H188.585ZM195.538 67.1581C194.122 67.1581 193.322 66.1341 193.322 64.3101C193.322 62.4781 194.122 61.4621 195.562 61.4621C196.618 61.4621 197.33 62.1341 197.546 63.3421H196.81C196.626 62.5021 196.218 62.1021 195.562 62.1021C194.57 62.1021 194.034 62.8781 194.034 64.3101C194.034 65.7661 194.546 66.5181 195.538 66.5181C196.21 66.5181 196.61 66.1261 196.802 65.2781H197.538C197.322 66.4941 196.618 67.1581 195.538 67.1581ZM198.507 67.1101V61.5101H199.203V63.9421H201.523V61.5101H202.219V67.1101H201.523V64.5821H199.203V67.1101H198.507ZM203.012 67.1101L204.892 61.5101H205.756L207.636 67.1101H206.9L206.396 65.5981H204.228L203.724 67.1101H203.012ZM204.428 64.9661H206.196L205.308 62.2701L204.428 64.9661ZM208.493 67.1101V66.4701H209.933V62.1501H208.493V61.5101H212.069V62.1501H210.629V66.4701H212.069V67.1101H208.493ZM213.39 67.1101V61.5101H214.07L216.438 65.8061V61.5101H217.102V67.1101H216.422L214.054 62.8061V67.1101H213.39ZM183.168 75.1101L185.048 69.5101H185.912L187.792 75.1101H187.056L186.552 73.5981H184.384L183.88 75.1101H183.168ZM184.584 72.9661H186.352L185.464 70.2701L184.584 72.9661ZM188.649 75.1101V74.4701H190.089V70.1501H188.649V69.5101H192.225V70.1501H190.785V74.4701H192.225V75.1101H188.649ZM198.051 75.1101L199.931 69.5101H200.795L202.675 75.1101H201.939L201.435 73.5981H199.267L198.763 75.1101H198.051ZM199.467 72.9661H201.235L200.347 70.2701L199.467 72.9661ZM205.316 75.1581C204.028 75.1581 203.244 74.0861 203.244 72.3101C203.244 70.5021 203.972 69.4621 205.316 69.4621C206.284 69.4621 206.996 70.0301 207.204 71.3341H206.468C206.316 70.4701 205.892 70.1021 205.3 70.1021C204.396 70.1021 203.956 70.8621 203.956 72.3101C203.956 73.7581 204.428 74.5181 205.324 74.5181C206.076 74.5181 206.54 73.9021 206.54 72.9101V72.7181H205.42V72.0781H207.22V75.1101H206.62L206.572 74.3741C206.316 74.8861 205.892 75.1581 205.316 75.1581ZM208.549 75.1101V69.5101H212.061V70.1501H209.245V71.9421H211.637V72.5821H209.245V74.4701H212.165V75.1101H208.549ZM213.39 75.1101V69.5101H214.07L216.438 73.8061V69.5101H217.102V75.1101H216.422L214.054 70.8061V75.1101H213.39ZM219.863 75.1101V70.1501H218.047V69.5101H222.375V70.1501H220.559V75.1101H219.863Z" fill="#D8D8D8"/>
<path d="M245 9V1H253.16" stroke="#F5F5F5" stroke-linecap="square"/>
<path d="M287.84 1L296 1L296 9" stroke="#F5F5F5" stroke-linecap="square"/>
<path fill-rule="evenodd" clip-rule="evenodd" d="M269.152 16.2822H266.458V18.9758H269.152V16.2822ZM269.152 18.9774H266.464H266.458H263.77V21.671H266.458H266.464H269.152V18.9774ZM263.769 21.6726H261.075V24.3605V24.3662V27.0541H263.769V24.3662V24.3605V21.6726ZM258.38 24.3605H261.073V27.0541H258.38V24.3605ZM261.075 27.0557H263.769V29.7493H261.075V27.0557ZM274.542 27.0557H271.849V29.7493H274.542V27.0557ZM261.075 29.7509H263.769V32.4445H261.075V29.7509ZM263.769 32.4461H261.075V35.1397H263.769V32.4461ZM271.849 29.7509H274.542V32.4445H271.849V29.7509ZM266.458 24.3605H263.77V27.0541H266.458H266.464H269.152V24.3605H266.464H266.458ZM263.77 27.0557H266.458H266.464H269.152V29.7493H266.464H266.458H263.77V27.0557ZM277.232 27.0557H274.544V29.7493H277.232H277.237H279.925V27.0557H277.237H277.232ZM263.77 29.7509H266.458H266.464H269.152V32.4445H266.464H266.458H263.77V29.7509ZM277.232 29.7509H274.544V32.4445H277.232H277.237H279.925V29.7509H277.237H277.232ZM269.153 32.4461H271.847V35.134V35.1397V37.8276H269.153V35.1397V35.134V32.4461ZM263.77 32.4461H266.464V35.134V35.1397V37.8276H263.77V35.1397V35.134V32.4461ZM274.544 32.4461H277.232H277.237H279.925V35.1397H277.237V37.8276H274.544V35.1397V35.134V32.4461ZM269.153 29.7509H271.847V32.4445H269.153V29.7509ZM274.542 24.3605H271.849V27.0541H274.542V24.3605ZM274.544 24.3605H277.232V21.6726H279.925V24.3605V24.3662V27.0541H277.237H277.232H274.544V24.3605ZM279.927 24.3605H282.62V27.0541H279.927V24.3605ZM271.847 16.2822H269.153V18.9758H271.847V16.2822ZM269.153 18.9774H271.847V21.671H269.153V18.9774ZM271.847 21.6726H269.153V24.3662H271.847V21.6726ZM271.849 16.2822H274.542V18.9758H271.849V16.2822ZM274.542 18.9774H271.849V21.671H274.542V18.9774ZM274.544 18.9774H277.237V21.671H274.544V18.9774Z" fill="#FF409B"/>
<path d="M296 45.1101L296 53.1101L287.84 53.1101" stroke="#F5F5F5" stroke-linecap="square"/>
<path d="M253.16 53.1101L245 53.1101L245 45.1101" stroke="#F5F5F5" stroke-linecap="square"/>
<path d="M246.416 67.1581C245.144 67.1581 244.368 66.0781 244.368 64.3101C244.368 62.4941 245.112 61.4621 246.48 61.4621C247.488 61.4621 248.216 62.1021 248.384 63.4141H247.488C247.36 62.6061 247 62.2621 246.464 62.2621C245.656 62.2621 245.264 62.9581 245.264 64.3101C245.264 65.6621 245.68 66.3581 246.496 66.3581C247.16 66.3581 247.568 65.8381 247.568 64.9741V64.7981H246.552V64.0461H248.408V67.1101H247.712L247.64 66.4141C247.368 66.9181 246.976 67.1581 246.416 67.1581ZM249.609 67.1101V61.5101H251.577C252.713 61.5101 253.473 62.2061 253.473 63.2941C253.473 64.0461 253.049 64.6461 252.385 64.8781L253.569 67.1101H252.561L251.481 65.0781H250.521V67.1101H249.609ZM250.521 64.2781H251.489C252.137 64.2781 252.553 63.8941 252.553 63.2941C252.553 62.6941 252.137 62.3101 251.489 62.3101H250.521V64.2781ZM256.402 67.1581C255.09 67.1581 254.29 66.0781 254.29 64.3101C254.29 62.5421 255.09 61.4621 256.402 61.4621C257.714 61.4621 258.514 62.5421 258.514 64.3101C258.514 66.0781 257.714 67.1581 256.402 67.1581ZM256.402 66.3501C257.202 66.3501 257.594 65.6701 257.594 64.3101C257.594 62.9501 257.202 62.2701 256.402 62.2701C255.602 62.2701 255.21 62.9421 255.21 64.3101C255.21 65.6781 255.602 66.3501 256.402 66.3501ZM259.771 67.1101L259.035 61.5101H259.883L260.371 65.8461L261.035 63.3581H261.715L262.363 65.8461L262.875 61.5101H263.691L262.947 67.1101H262.003L261.371 64.5341L260.731 67.1101H259.771ZM265.868 67.1101V62.3261H264.156V61.5101H268.5V62.3261H266.78V67.1101H265.868ZM269.373 67.1101V61.5101H270.285V63.8621H272.285V61.5101H273.197V67.1101H272.285V64.6781H270.285V67.1101H269.373ZM244.144 75.1101L245.912 69.5101H247.048L248.816 75.1101H247.864L247.44 73.7261H245.488L245.064 75.1101H244.144ZM245.712 72.9421H247.216L246.456 70.4781L245.712 72.9421ZM249.577 75.1101V74.3101H250.985V70.3101H249.577V69.5101H253.297V70.3101H251.897V74.3101H253.297V75.1101H249.577ZM259.027 75.1101L260.795 69.5101H261.931L263.699 75.1101H262.747L262.323 73.7261H260.371L259.947 75.1101H259.027ZM260.595 72.9421H262.099L261.339 70.4781L260.595 72.9421ZM266.26 75.1581C264.988 75.1581 264.212 74.0781 264.212 72.3101C264.212 70.4941 264.956 69.4621 266.324 69.4621C267.332 69.4621 268.06 70.1021 268.228 71.4141H267.332C267.204 70.6061 266.844 70.2621 266.308 70.2621C265.5 70.2621 265.108 70.9581 265.108 72.3101C265.108 73.6621 265.524 74.3581 266.34 74.3581C267.004 74.3581 267.412 73.8381 267.412 72.9741V72.7981H266.396V72.0461H268.252V75.1101H267.556L267.484 74.4141C267.212 74.9181 266.82 75.1581 266.26 75.1581ZM269.509 75.1101V69.5101H273.077V70.3261H270.429V71.8781H272.661V72.6701H270.429V74.2941H273.173V75.1101H269.509ZM274.334 75.1101V69.5101H275.182L277.326 73.4621V69.5101H278.158V75.1101H277.31L275.166 71.1581V75.1101H274.334ZM280.751 75.1101V70.3261H279.039V69.5101H283.383V70.3261H281.663V75.1101H280.751ZM286.256 75.1581C284.968 75.1581 284.128 74.4301 284.096 73.2701H285.016C285.072 73.9581 285.552 74.3821 286.264 74.3821C286.912 74.3821 287.312 74.0701 287.312 73.5581C287.312 73.0701 287.008 72.8621 285.944 72.6621C284.752 72.4381 284.232 71.9661 284.232 71.1021C284.232 70.1261 285 69.4621 286.12 69.4621C287.312 69.4621 288.104 70.1341 288.144 71.1901H287.224C287.16 70.5981 286.736 70.2381 286.12 70.2381C285.512 70.2381 285.144 70.5341 285.144 71.0301C285.144 71.5021 285.448 71.7101 286.496 71.9021C287.688 72.1101 288.232 72.6061 288.232 73.4541C288.232 74.4621 287.424 75.1581 286.256 75.1581Z" fill="#FF409B"/>
</svg>
